HIERARCHY
ROOT Hips
{
    OFFSET 0.000000 0.000000 0.000000
    CHANNELS 6 Xposition Yposition Zposition Zrotation Xrotation Yrotation
    JOINT Spine
    {
        OFFSET -0.000000 14.517291 0.000000
        CHANNELS 3 Zrotation Xrotation Yrotation
        JOINT Spine1
        {
            OFFSET -0.000000 37.558300 0.000000
            CHANNELS 3 Zrotation Xrotation Yrotation
            JOINT Neck
            {
                OFFSET -0.000000 37.404057 3.400369
                CHANNELS 3 Zrotation Xrotation Yrotation
                JOINT Head
                {
                    OFFSET -0.000000 24.785618 -3.540803
                    CHANNELS 3 Zrotation Xrotation Yrotation
                    End Site
                    {
                        OFFSET -0.000000 35.408028 0.000000
                    }
                }
            }
            JOINT LeftShoulder
            {
                OFFSET 6.992933 33.973492 -0.192664
                CHANNELS 3 Zrotation Xrotation Yrotation
                JOINT LeftArm
                {
                    OFFSET 21.527611 0.000000 0.000000
                    CHANNELS 3 Zrotation Xrotation Yrotation
                    JOINT LeftForeArm
                    {
                        OFFSET 56.353916 0.000000 0.000000
                        CHANNELS 3 Zrotation Xrotation Yrotation
                        JOINT LeftHand
                        {
                            OFFSET 47.774071 0.000000 0.000000
                            CHANNELS 3 Zrotation Xrotation Yrotation
                            End Site
                            {
                                OFFSET 26.556021 0.000000 0.000000
                            }
                        }
                    }
                }
            }
            JOINT RightShoulder
            {
                OFFSET -7.065357 33.973492 -0.192664
                CHANNELS 3 Zrotation Xrotation Yrotation
                JOINT RightArm
                {
                    OFFSET -21.527611 0.000000 0.000000
                    CHANNELS 3 Zrotation Xrotation Yrotation
                    JOINT RightForeArm
                    {
                        OFFSET -56.353916 0.000000 0.000000
                        CHANNELS 3 Zrotation Xrotation Yrotation
                        JOINT RightHand
                        {
                            OFFSET -47.774071 0.000000 0.000000
                            CHANNELS 3 Zrotation Xrotation Yrotation
                            End Site
                            {
                                OFFSET -26.556021 0.000000 0.000000
                            }
                        }
                    }
                }
            }
        }
    }
    JOINT LeftUpLeg
    {
        OFFSET 17.704014 0.000000 0.000000
        CHANNELS 3 Zrotation Xrotation Yrotation
        JOINT LeftLeg
        {
            OFFSET -0.000000 -81.181816 0.000000
            CHANNELS 3 Zrotation Xrotation Yrotation
            JOINT LeftFoot
            {
                OFFSET -0.000000 -62.821102 0.000000
                CHANNELS 3 Zrotation Xrotation Yrotation
                JOINT LeftToeBase
                {
                    OFFSET -0.000000 -11.507608 26.556021
                    CHANNELS 3 Zrotation Xrotation Yrotation
                    End Site
                    {
                        OFFSET -0.000000 0.000000 7.081605
                    }
                }
            }
        }
    }
    JOINT RightUpLeg
    {
        OFFSET -17.704014 0.000000 0.000000
        CHANNELS 3 Zrotation Xrotation Yrotation
        JOINT RightLeg
        {
            OFFSET -0.000000 -81.181816 0.000000
            CHANNELS 3 Zrotation Xrotation Yrotation
            JOINT RightFoot
            {
                OFFSET -0.000000 -62.821102 0.000000
                CHANNELS 3 Zrotation Xrotation Yrotation
                JOINT RightToeBase
                {
                    OFFSET -0.000000 -11.507608 26.556021
                    CHANNELS 3 Zrotation Xrotation Yrotation
                    End Site
                    {
                        OFFSET -0.000000 0.000000 7.081605
                    }
                }
            }
        }
    }
}
MOTION
Frames:    13
Frame Time:    0.008333
-14.844143    151.487595    -97.089241    1.886840    -4.395968    44.233669    1.590288    -0.468995    5.159871    -4.840787    4.485760    1.908583    -3.115643    1.952405    -21.133562    16.739059    1.919437    -19.603222    2.020381    5.449292    -13.212780    -31.973415    24.547155    -50.358990    -4.260020    -21.696087    -123.465256    -10.625541    -27.737944    -13.751647    -9.401311    4.687456    4.735451    21.310240    -9.129339    49.346352    -9.748207    8.920757    71.373627    -19.651129    5.370927    56.105354    17.672564    -3.219597    -5.414271    -18.630476    40.411037    -19.984982    6.547545    -32.220119    51.999886    0.000000    0.000000    0.000000    -22.937405    -17.926722    -23.933643    9.438633    29.556047    -15.903992    3.537408    3.519768    -8.407171    0.000000    0.000000    0.000000    
-14.842671    151.479752    -97.111717    1.897121    -4.390862    44.143394    1.524365    -0.481476    5.034402    -4.801506    4.510765    1.866311    -3.068297    1.973066    -21.074541    16.693281    1.840005    -19.541771    2.077749    5.437575    -13.147709    -31.974844    24.459249    -50.547871    -4.920394    -20.879473    -123.707985    -8.306451    -28.413967    -12.706769    -9.310370    4.730004    4.577374    21.274220    -9.011195    48.871456    -9.914184    8.972439    70.850395    -19.622908    5.270853    57.083286    17.646765    -3.174330    -5.357844    -18.623241    40.390724    -19.954523    6.573989    -32.229794    52.004551    0.000000    0.000000    0.000000    -22.933443    -17.969591    -23.892281    9.430786    29.552298    -15.898811    3.501004    3.538784    -8.374876    0.000000    0.000000    0.000000    
-14.838775    151.470642    -97.134315    1.912467    -4.380911    44.040562    1.463560    -0.483125    4.947855    -4.806969    4.509173    1.837610    -2.923362    2.009793    -21.015785    16.564026    1.733474    -19.500189    2.169066    5.447233    -13.155998    -32.019115    24.446692    -50.573570    -5.107523    -20.701193    -123.793159    -7.677910    -28.651499    -12.402333    -9.144686    4.747795    4.419465    21.196138    -8.865092    48.322735    -10.053493    9.012858    70.366043    -19.611740    5.139329    58.031738    17.617910    -3.122404    -5.292609    -18.623241    40.370975    -19.945175    6.591703    -32.249180    52.032307    0.000000    0.000000    0.000000    -22.937933    -18.017488    -23.841251    9.426373    29.558456    -15.879855    3.487663    3.538942    -8.344269    0.000000    0.000000    0.000000    
-14.833922    151.460236    -97.155296    1.928125    -4.373021    43.934692    1.414865    -0.484775    4.843242    -4.798963    4.504195    1.802235    -2.856188    2.041987    -20.954674    16.483076    1.671098    -19.446327    2.203173    5.504477    -13.160712    -32.014091    24.397881    -50.586227    -5.161579    -20.667742    -123.825249    -7.408711    -28.750704    -12.236700    -9.122421    4.626074    4.281067    21.240028    -8.498575    47.770355    -10.334102    8.979603    69.881325    -19.559036    5.055401    58.975227    17.586729    -3.069774    -5.210210    -18.605583    40.360504    -19.916941    6.604887    -32.262650    52.015575    0.000000    0.000000    0.000000    -22.940065    -18.068495    -23.804565    9.412885    29.565992    -15.880819    3.473024    3.560864    -8.286729    0.000000    0.000000    0.000000    
-14.817929    151.448441    -97.172211    1.953641    -4.368876    43.824150    1.378720    -0.512003    4.722668    -4.806995    4.545667    1.764005    -2.800587    2.090584    -20.882444    16.421480    1.585650    -19.374048    2.232697    5.532925    -13.108929    -31.965849    24.418322    -50.640808    -5.118322    -20.790594    -123.782059    -7.321297    -28.798281    -12.170848    -9.065940    4.675298    4.176135    21.197060    -8.290640    47.288349    -10.555964    8.887427    69.372055    -19.556538    4.835553    59.910149    17.549212    -2.997244    -5.145290    -18.589153    40.341049    -19.914190    6.625551    -32.290974    52.023338    0.000000    0.000000    0.000000    -22.948835    -18.106384    -23.751581    9.409170    29.571001    -15.860049    3.462909    3.572057    -8.254976    0.000000    0.000000    0.000000    
-14.802529    151.436310    -97.186401    1.976863    -4.369814    43.709690    1.314854    -0.523872    4.609765    -4.766088    4.565239    1.725545    -2.750648    2.108964    -20.813951    16.341713    1.545155    -19.312904    2.254741    5.556413    -13.073271    -31.953966    24.441072    -50.676380    -5.076087    -20.909218    -123.745529    -7.296329    -28.838280    -12.114395    -9.007040    4.720023    4.062245    21.210814    -8.164308    46.819527    -10.689744    8.896151    68.903297    -19.587042    4.638232    60.841652    17.524963    -2.923488    -5.090261    -18.615349    40.314373    -19.864815    6.658425    -32.296425    52.037258    0.000000    0.000000    0.000000    -22.948593    -18.141808    -23.709936    9.395352    29.575512    -15.808645    3.475852    3.577175    -8.238778    0.000000    0.000000    0.000000    
-14.783007    151.421219    -97.200371    2.002150    -4.363690    43.590275    1.220167    -0.550185    4.528220    -4.682763    4.609022    1.696916    -2.713349    2.116855    -20.759529    16.270287    1.488257    -19.261372    2.271828    5.555000    -13.069580    -31.969303    24.433582    -50.729435    -5.035330    -20.958075    -123.686142    -7.090649    -28.816591    -12.277591    -8.959049    4.742231    3.904289    21.085682    -7.785852    46.319729    -11.008640    8.571717    68.428246    -19.546131    4.275861    61.753704    17.487328    -2.853579    -5.027909    -18.617849    40.300724    -19.837378    6.676766    -32.327721    52.048336    0.000000    0.000000    0.000000    -22.959047    -18.189131    -23.665041    9.388129    29.597612    -15.781541    3.470256    3.570275    -8.206091    0.000000    0.000000    0.000000    
-14.762884    151.406403    -97.218918    2.019772    -4.359004    43.470917    1.139387    -0.579484    4.443916    -4.582873    4.657254    1.666721    -2.751751    2.101031    -20.720490    16.250006    1.490452    -19.217617    2.257165    5.562375    -13.053358    -31.945351    24.433296    -50.808563    -4.976628    -21.046318    -123.614616    -6.977121    -28.805817    -12.183111    -8.962672    4.770211    3.743627    20.984194    -7.417002    45.837193    -11.284460    8.248435    68.001877    -19.553926    3.863939    62.636806    17.455971    -2.794955    -4.968166    -18.639603    40.292850    -19.805555    6.649876    -32.498360    52.172489    0.000000    0.000000    0.000000    -22.962748    -18.231857    -23.604523    9.388846    29.595636    -15.775444    3.464622    3.575793    -8.160155    0.000000    0.000000    0.000000    
-14.741245    151.391083    -97.234253    2.041294    -4.364882    43.337517    1.087555    -0.585653    4.380069    -4.544963    4.686232    1.645114    -2.717280    2.090784    -20.678671    16.189688    1.475209    -19.183121    2.282844    5.576475    -13.043073    -31.927843    24.437502    -50.877567    -4.944746    -21.115250    -123.565697    -7.062069    -28.806364    -12.096901    -8.924000    4.874158    3.516656    20.851429    -6.981362    45.453117    -11.688268    7.809254    67.517624    -19.474121    3.470053    63.499641    17.429619    -2.715096    -4.905932    -18.659819    40.276844    -19.764259    6.677188    -32.531231    52.195293    0.000000    0.000000    0.000000    -22.952564    -18.273220    -23.554180    9.365273    29.601835    -15.734567    3.479778    3.579314    -8.110607    0.000000    0.000000    0.000000    
-14.725381    151.379166    -97.250000    2.047139    -4.367473    43.202675    1.061177    -0.597089    4.295881    -4.543827    4.695382    1.617372    -2.684483    2.104619    -20.623968    16.165552    1.461121    -19.131155    2.311058    5.583989    -13.020541    -31.950228    24.431746    -50.917221    -5.175790    -21.099751    -123.630234    -6.412837    -29.259241    -11.778010    -8.821118    4.819686    3.430146    20.724764    -6.585961    44.716091    -10.933542    7.073843    67.980156    -18.226068    3.452392    61.837643    17.418356    -2.597596    -4.843667    -18.673977    40.274086    -19.745186    6.825793    -32.468536    52.115124    0.000000    0.000000    0.000000    -22.932289    -18.330702    -23.487806    9.351823    29.608915    -15.695710    3.480365    3.586935    -8.093029    0.000000    0.000000    0.000000    
-14.706501    151.368088    -97.262833    2.050857    -4.376796    43.079071    1.057315    -0.592513    4.217052    -4.589772    4.674439    1.592116    -2.579568    2.145043    -20.563965    16.103731    1.412632    -19.083521    2.385636    5.622637    -13.034180    -31.994583    24.397354    -50.960968    -4.922076    -21.136847    -123.526054    -6.535002    -28.854000    -11.649429    -8.689499    4.880659    3.276799    20.766066    -6.515767    44.290699    -10.977640    7.185917    67.651848    -18.335295    3.291996    62.693218    17.405579    -2.588872    -4.784276    -18.700251    40.260136    -19.694590    6.744164    -32.569691    52.249298    0.000000    0.000000    0.000000    -22.906193    -18.372034    -23.457371    9.323028    29.605314    -15.654821    3.462099    3.604433    -8.034342    0.000000    0.000000    0.000000    
-14.690727    151.363953    -97.270782    2.040685    -4.388052    42.942242    1.033567    -0.610423    4.143284    -4.550228    4.671074    1.565698    -2.536137    2.164953    -20.518526    16.028530    1.399868    -19.049377    2.388623    5.667706    -13.039734    -32.037689    24.338011    -50.963745    -4.958433    -21.067387    -123.509254    -7.083326    -28.775274    -12.042814    -8.638141    4.931169    3.109526    20.789501    -6.328100    43.897026    -11.090009    7.133729    67.311798    -18.392637    3.045320    63.521400    17.414106    -2.522717    -4.707339    -18.725687    40.238163    -19.648840    6.769379    -32.580353    52.258759    0.000000    0.000000    0.000000    -22.856804    -18.424271    -23.388119    9.298189    29.585844    -15.635605    3.450673    3.635908    -7.986691    0.000000    0.000000    0.000000    
-14.672353    151.359146    -97.276497    2.026718    -4.393019    42.816967    0.984439    -0.649068    4.069701    -4.471035    4.686847    1.538535    -2.489411    2.201064    -20.468882    15.948908    1.333979    -19.004742    2.379278    5.675415    -13.066036    -32.115227    24.275118    -50.938999    -4.976138    -20.973986    -123.495880    -7.049492    -28.716967    -12.052950    -8.575447    4.956916    2.932784    20.779108    -6.144351    43.489685    -11.222601    7.136126    67.024796    -18.459463    2.875523    64.302498    17.417803    -2.467001    -4.634272    -18.732824    40.220272    -19.633804    6.799732    -32.599739    52.284981    0.000000    0.000000    0.000000    -22.814245    -18.477594    -23.336748    9.274870    29.569859    -15.593178    3.450059    3.664019    -7.979558    0.000000    0.000000    0.000000    
